<svg data-noselect="" viewBox="0 0 400 300" width="400" height="300" preserveAspectRatio="none" version="1.1" xmlns="http://www.w3.org/2000/svg" style="background: rgba(255, 255, 255, 0);"><defs><filter id="filter_shadow_shape_FHEoPhzrtk" width="1000%" height="1000%"><feGaussianBlur in="SourceAlpha" stdDeviation="1"></feGaussianBlur> <feOffset dx="1" dy="1" result="offsetblur"></feOffset><feComponentTransfer><feFuncA type="linear" slope="0.44"></feFuncA></feComponentTransfer><feMerge><feMergeNode></feMergeNode><feMergeNode in="SourceGraphic"></feMergeNode></feMerge></filter></defs> <g id="shape_FHEoPhzrtk" transform="translate(71.9796871901502,43.64328845790334) rotate(0,80,73.10863729575578) scale(1.4547762819301113,1.4547762819301113)" filter="url(#filter_shadow_shape_FHEoPhzrtk)" style="cursor: move; opacity: 0.19;"><g><rect fill="rgba(0,0,0,0)" width="180" height="166.21727459151157" x="-10" y="-10"></rect><svg version="1.1" id="图层_1" xmlns="http://www.w3.org/2000/svg" xmlns:xlink="http://www.w3.org/1999/xlink" x="0px" y="0px" style="enable-background:new 0 0 283.46 226.77;" xml:space="preserve" viewBox="90.69183349609375 66.43966674804688 102.0892333984375 93.29505920410156" width="160" height="146.21727459151157" preserveAspectRatio="none" data-parent="shape_FHEoPhzrtk">
<g>
	<g>
		<g>
			<path style="" d="M106.352,143.996c-22.807-20.192-19.778-52.983,3.086-69.223
				c16.064-11.4,40.519-12.809,56.09,6.63c11.026,13.781,11.787,33.593,4.791,45.549c-4.376,7.469-14.444,12.992-20.602,5.622
				c-5.601-6.693,0.655-12.639,2.84-20.453c7.827-28.049-30.98-47.903-51.419-20.94C90.711,104.957,91.289,126.171,106.352,143.996z
				" fill-rule="evenodd" clip-rule="evenodd" fill="#ECECEB"></path>
		</g>
	</g>
	<g>
		<g>
			<path style="" d="M177.879,82.848c22.342,20.721,18.566,53.426-4.678,69.138
				c-16.325,11.026-40.794,11.865-55.914-7.92c-10.717-14.035-11.02-33.861-3.749-45.648c4.545-7.363,14.74-12.661,20.736-5.143
				c5.439,6.813-0.952,12.618-3.319,20.376c-8.461,27.858,29.873,48.615,50.926,22.116
				C192.618,122.247,192.534,101.011,177.879,82.848z" fill-rule="evenodd" clip-rule="evenodd" fill="#1C94D1"></path>
		</g>
	</g>
</g>
</svg></g> <!----></g><g id="shape_b3xFbzfXDH" transform="translate(50.88543110216358,117.84123521825626) rotate(0,102.5,28) scale(1.4547762819301113,1.4547762819301113)" filter="" style="cursor: move; opacity: 0.46;"><g><svg xmlns="http://www.w3.org/2000/svg" version="1.1" xmlns:xlink="http://www.w3.org/1999/xlink" overflow="hidden" style="top:0; left: 0" width="205" height="59.375" viewBox="0 0 205 59.375" preserveAspectRatio="none" data-parent="shape_b3xFbzfXDH"><rect fill="rgba(0,0,0,0)" width="205" height="59.375"></rect> <rect opacity="0"></rect><g transform="translate(0 0)" data-width="200"><path fill="#00A0E9" d="M13.57-39.06L13.57-39.06L15.43-39.06L15.43-36.13L15.53-33.11L17.48-33.11L19.53-33.11L19.53-32.23L19.53-31.25L17.48-31.25L15.53-31.15L15.53-26.07L15.53-21.00L17.48-21.00L19.53-21.00L19.53-20.02L19.53-19.14L17.48-19.14L15.53-19.14L15.53-9.28L15.53-9.28Q15.53 0.49 15.33 1.12L15.33 1.12L15.33 1.12Q15.14 1.76 14.94 2.15L14.94 2.15L14.94 2.15Q14.65 2.64 14.26 3.03L14.26 3.03L14.26 3.03Q13.87 3.52 13.28 3.81L13.28 3.81L13.28 3.81Q12.70 4.10 12.01 4.10L12.01 4.10L11.33 4.10L11.23-13.57L11.23-31.25L7.71-31.25L4.20-31.25L4.20-32.23L4.20-33.11L7.71-33.11L11.23-33.11L11.23-36.04L11.23-36.04Q11.23-39.06 11.43-39.06L11.43-39.06L11.43-39.06Q11.62-39.16 13.57-39.06ZM19.04-36.33L29.69-36.33L29.69-36.33Q40.43-36.33 41.16-36.28L41.16-36.28L41.16-36.28Q41.89-36.23 41.89-36.04L41.89-36.04L41.89-36.04Q41.89-35.74 41.50-34.57L41.50-34.57L41.50-34.57Q41.11-33.40 40.48-32.23L40.48-32.23L40.48-32.23Q39.84-31.05 39.06-29.98L39.06-29.98L39.06-29.98Q38.18-28.91 37.21-27.83L37.21-27.83L37.21-27.83Q36.33-26.95 35.55-26.37L35.55-26.37L35.55-26.37Q34.86-25.78 33.89-25.10L33.89-25.10L32.91-24.41L35.84-24.41L35.84-24.41Q38.87-24.41 38.87-24.61L38.87-24.61L38.87-24.61Q38.96-24.80 38.96-25L38.96-25L38.96-25Q38.96-25.20 41.41-25.20L41.41-25.20L41.41-25.20Q43.85-25.20 43.85-25.10L43.85-25.10L43.85-25.10Q43.85-25 43.46-23.73L43.46-23.73L43.46-23.73Q43.07-22.36 42.58-21.00L42.58-21.00L42.58-21.00Q42.09-19.43 41.41-17.97L41.41-17.97L41.41-17.97Q40.72-16.50 40.33-15.63L40.33-15.63L40.33-15.63Q39.94-14.84 39.36-13.87L39.36-13.87L39.36-13.87Q38.77-12.89 37.89-11.52L37.89-11.52L37.89-11.52Q37.11-10.25 37.21-10.01L37.21-10.01L37.21-10.01Q37.30-9.77 38.57-8.50L38.57-8.50L38.57-8.50Q39.75-7.32 40.82-6.54L40.82-6.54L40.82-6.54Q41.89-5.66 42.87-4.98L42.87-4.98L42.87-4.98Q43.95-4.30 44.82-3.86L44.82-3.86L44.82-3.86Q45.70-3.42 45.70-3.37L45.70-3.37L45.70-3.37Q45.70-3.32 44.92-1.03L44.92-1.03L44.92-1.03Q44.14 1.27 44.09 1.27L44.09 1.27L44.09 1.27Q44.04 1.27 43.36 0.78L43.36 0.78L43.36 0.78Q42.77 0.29 41.65-0.68L41.65-0.68L41.65-0.68Q40.53-1.66 39.16-3.03L39.16-3.03L39.16-3.03Q37.70-4.59 36.43-6.15L36.43-6.15L36.43-6.15Q35.16-7.71 35.11-7.71L35.11-7.71L35.11-7.71Q35.06-7.71 34.33-6.88L34.33-6.88L34.33-6.88Q33.59-6.05 32.42-4.98L32.42-4.98L32.42-4.98Q31.05-3.81 30.37-3.13L30.37-3.13L30.37-3.13Q29.39-2.44 28.13-1.56L28.13-1.56L28.13-1.56Q26.86-0.68 25.29 0L25.29 0L25.29 0Q23.73 0.78 22.71 1.22L22.71 1.22L22.71 1.22Q21.68 1.66 21.00 1.66L21.00 1.66L21.00 1.66Q20.31 1.76 20.21 1.66L20.21 1.66L21.39 0.68L21.39 0.68Q23.05-0.39 24.22-1.27L24.22-1.27L24.22-1.27Q25.59-2.34 27.05-3.61L27.05-3.61L27.05-3.61Q28.42-4.79 29.49-5.96L29.49-5.96L29.49-5.96Q30.47-6.93 31.54-8.20L31.54-8.20L31.54-8.20Q32.62-9.47 32.91-9.96L32.91-9.96L33.30-10.55L32.62-11.72L32.62-11.72Q31.84-13.09 31.15-14.45L31.15-14.45L31.15-14.45Q30.47-15.92 29.88-17.38L29.88-17.38L29.88-17.38Q29.39-18.75 29.00-20.12L29.00-20.12L29.00-20.12Q28.61-21.48 28.32-23.14L28.32-23.14L28.32-23.14Q27.93-24.71 27.83-26.37L27.83-26.37L27.83-26.37Q27.64-28.03 27.64-28.91L27.64-28.91L27.64-28.91Q27.64-29.88 27.88-29.88L27.88-29.88L27.88-29.88Q28.13-29.88 28.52-28.42L28.52-28.42L28.52-28.42Q28.91-26.95 29.20-25.88L29.20-25.88L29.20-25.88Q29.30-25.59 29.39-25.29L29.39-25.29L29.39-25.29Q29.49-25 29.54-24.80L29.54-24.80L29.54-24.80Q29.59-24.61 29.59-24.61L29.59-24.61L29.59-24.61Q29.59-24.41 30.57-25.10L30.57-25.10L30.57-25.10Q31.54-25.88 32.52-26.86L32.52-26.86L32.52-26.86Q33.50-27.93 34.28-29.00L34.28-29.00L34.28-29.00Q34.96-30.08 35.45-31.05L35.45-31.05L35.45-31.05Q35.94-31.93 36.33-33.01L36.33-33.01L36.33-33.01Q36.62-33.98 36.62-34.18L36.62-34.18L36.62-34.18Q36.62-34.38 31.45-34.38L31.45-34.38L26.27-34.38L26.27-23.05L26.27-23.05Q26.17-11.82 25.98-10.74L25.98-10.74L25.98-10.74Q25.68-9.67 25.39-8.69L25.39-8.69L25.39-8.69Q25-7.62 24.61-6.84L24.61-6.84L24.61-6.84Q24.22-5.86 23.54-4.88L23.54-4.88L23.54-4.88Q22.85-3.91 21.88-2.83L21.88-2.83L21.88-2.83Q20.80-1.86 20.02-1.27L20.02-1.27L20.02-1.27Q19.24-0.68 18.16-0.10L18.16-0.10L18.16-0.10Q17.19 0.49 16.99 0.59L16.99 0.59L16.99 0.59Q16.80 0.59 16.75 0.49L16.75 0.49L16.75 0.49Q16.70 0.39 16.70-0.20L16.70-0.20L16.70-0.98L17.29-1.46L17.29-1.46Q17.97-1.86 18.65-2.64L18.65-2.64L18.65-2.64Q19.34-3.22 19.92-4.00L19.92-4.00L19.92-4.00Q20.41-4.69 20.90-5.76L20.90-5.76L20.90-5.76Q21.39-6.84 21.68-7.91L21.68-7.91L21.97-8.98L22.07-21.68L22.07-34.38L20.61-34.38L19.14-34.38L19.04-35.35L19.04-36.33ZM35.25-22.56L35.25-22.56L35.25-22.56Q32.91-22.56 31.15-22.46L31.15-22.46L31.15-22.46Q30.27-22.46 30.27-22.41L30.27-22.41L30.27-22.41Q30.27-22.36 30.96-20.65L30.96-20.65L30.96-20.65Q31.64-18.95 32.52-17.19L32.52-17.19L32.52-17.19Q33.30-15.43 34.08-14.26L34.08-14.26L34.08-14.26Q34.77-13.09 34.91-13.13L34.91-13.13L34.91-13.13Q35.06-13.18 35.45-14.06L35.45-14.06L35.45-14.06Q35.94-14.84 36.43-16.02L36.43-16.02L36.43-16.02Q36.91-17.09 37.40-18.36L37.40-18.36L37.40-18.36Q37.79-19.53 38.18-20.90L38.18-20.90L38.18-20.90Q38.57-22.46 38.57-22.46L38.57-22.46L38.57-22.46Q38.57-22.56 35.25-22.56ZM4.20-22.66L6.35-22.66L8.40-22.56L8.40-16.99L8.40-16.99Q8.50-11.43 8.30-10.45L8.30-10.45L8.30-10.45Q8.20-9.57 7.91-8.94L7.91-8.94L7.91-8.94Q7.62-8.30 7.23-7.86L7.23-7.86L7.23-7.86Q6.84-7.42 6.25-7.13L6.25-7.13L6.25-7.13Q5.66-6.84 4.98-6.84L4.98-6.84L4.20-6.84L4.20-14.75L4.20-22.66Z" transform="translate(0 43.84765625)"></path><path fill="#00A0E9" d="M13.28-39.06L15.63-39.06L15.63-39.06Q17.97-39.06 17.97-38.96L17.97-38.96L17.97-38.96Q17.97-38.87 17.19-37.11L17.19-37.11L17.19-37.11Q16.41-35.35 16.41-35.25L16.41-35.25L16.41-35.25Q16.41-35.16 21.78-35.16L21.78-35.16L27.25-35.06L27.25-34.18L27.25-33.30L21.29-33.30L15.23-33.20L15.04-32.91L15.04-32.91Q14.94-32.62 14.06-31.15L14.06-31.15L14.06-31.15Q13.18-29.88 12.60-29.00L12.60-29.00L12.60-29.00Q11.82-28.13 10.94-27.25L10.94-27.25L10.94-27.25Q10.06-26.27 9.38-25.78L9.38-25.78L9.38-25.78Q8.79-25.29 8.20-25.39L8.20-25.39L8.20-25.39Q7.62-25.49 7.57-25.49L7.57-25.49L7.57-25.49Q7.52-25.49 7.81-25.98L7.81-25.98L7.81-25.98Q8.11-26.37 8.69-27.54L8.69-27.54L8.69-27.54Q9.38-28.91 9.96-30.27L9.96-30.27L9.96-30.27Q10.55-31.64 11.33-33.50L11.33-33.50L11.33-33.50Q12.01-35.35 12.70-37.11L12.70-37.11L13.28-39.06ZM33.50-39.06L33.50-39.06L35.84-39.06L35.64-38.57L35.64-38.57Q35.55-38.28 34.86-36.72L34.86-36.72L34.86-36.72Q34.28-35.45 34.18-35.25L34.18-35.25L34.18-35.25Q34.18-35.25 34.38-35.21L34.38-35.21L34.38-35.21Q34.57-35.16 35.01-35.16L35.01-35.16L35.01-35.16Q35.45-35.16 36.18-35.16L36.18-35.16L36.18-35.16Q36.91-35.16 38.09-35.16L38.09-35.16L42.09-35.16L42.09-34.18L42.09-33.20L37.60-33.20L33.20-33.20L33.01-32.91L33.01-32.91Q32.81-32.62 31.74-30.96L31.74-30.96L31.74-30.96Q30.76-29.39 29.79-28.32L29.79-28.32L29.79-28.32Q28.91-27.25 28.22-26.56L28.22-26.56L28.22-26.56Q27.54-25.98 27.10-25.68L27.10-25.68L27.10-25.68Q26.66-25.39 26.07-25.39L26.07-25.39L25.39-25.49L25.78-25.98L25.78-25.98Q26.07-26.46 26.95-28.42L26.95-28.42L26.95-28.42Q27.93-30.37 28.96-32.86L28.96-32.86L28.96-32.86Q29.98-35.35 30.47-37.11L30.47-37.11L30.47-37.11Q31.05-38.67 31.15-38.96L31.15-38.96L31.15-38.96Q31.15-39.06 33.50-39.06ZM16.70-32.57L16.70-32.57L16.70-32.57Q16.70-32.81 18.75-32.81L18.75-32.81L18.75-32.81Q20.80-32.81 20.90-32.52L20.90-32.52L20.90-32.52Q20.90-32.32 21.29-30.66L21.29-30.66L21.29-30.66Q21.68-29.00 22.07-28.22L22.07-28.22L22.07-28.22Q22.36-27.34 22.75-26.76L22.75-26.76L22.75-26.76Q23.14-26.07 23.14-26.07L23.14-26.07L23.14-26.07Q23.14-25.98 22.46-25.98L22.46-25.98L22.46-25.98Q21.78-25.98 20.95-26.42L20.95-26.42L20.95-26.42Q20.12-26.86 19.04-27.83L19.04-27.83L19.04-27.83Q18.07-28.81 17.53-29.88L17.53-29.88L17.53-29.88Q16.99-30.96 16.89-31.64L16.89-31.64L16.89-31.64Q16.70-32.32 16.70-32.57ZM36.91-32.62L36.91-32.62L39.36-32.62L39.45-32.13L39.45-32.13Q39.55-31.84 40.04-30.27L40.04-30.27L40.04-30.27Q40.43-28.91 40.82-27.93L40.82-27.93L40.82-27.93Q41.31-27.05 41.70-26.56L41.70-26.56L41.70-26.56Q42.09-25.98 42.09-25.88L42.09-25.88L42.09-25.88Q42.09-25.78 41.41-25.78L41.41-25.78L41.41-25.78Q40.63-25.78 39.89-26.07L39.89-26.07L39.89-26.07Q39.16-26.37 38.38-26.86L38.38-26.86L38.38-26.86Q37.60-27.34 37.01-27.83L37.01-27.83L37.01-27.83Q36.52-28.22 36.04-28.91L36.04-28.91L36.04-28.91Q35.55-29.59 35.25-30.27L35.25-30.27L35.25-30.27Q34.86-30.96 34.67-31.54L34.67-31.54L34.67-31.54Q34.47-32.13 34.47-32.37L34.47-32.37L34.47-32.37Q34.47-32.62 36.91-32.62ZM13.09-27.25L15.53-27.25L18.07-27.25L18.16-26.56L18.16-26.56Q18.26-26.56 18.75-24.61L18.75-24.61L18.75-24.61Q19.14-23.24 19.63-22.36L19.63-22.36L19.63-22.36Q20.02-21.48 20.41-21.00L20.41-21.00L20.41-21.00Q20.80-20.61 20.80-20.51L20.80-20.51L20.80-20.51Q20.80-20.41 19.92-20.41L19.92-20.41L19.92-20.41Q19.04-20.41 18.26-20.80L18.26-20.80L18.26-20.80Q17.38-21.19 16.80-21.58L16.80-21.58L16.80-21.58Q16.11-22.07 15.33-22.95L15.33-22.95L15.33-22.95Q14.45-23.73 14.06-24.41L14.06-24.41L14.06-24.41Q13.77-25.10 13.48-25.88L13.48-25.88L13.48-25.88Q13.28-26.46 13.18-26.86L13.18-26.86L13.09-27.25ZM23.05-23.24L32.71-23.24L42.29-23.24L42.29-11.91L42.29-11.91Q42.29-0.68 42.09 0L42.09 0L42.09 0Q41.89 0.68 41.55 1.37L41.55 1.37L41.55 1.37Q41.21 2.05 40.63 2.64L40.63 2.64L40.63 2.64Q40.04 3.32 39.36 3.61L39.36 3.61L39.36 3.61Q38.67 3.91 38.38 4.00L38.38 4.00L38.09 4.10L38.09-8.59L38.09-21.29L30.57-21.29L23.05-21.29L23.05-22.27L23.05-23.24ZM10.16-21.29L12.21-21.29L14.36-21.29L14.36-11.23L14.36-11.23Q14.36-1.17 14.16-0.29L14.16-0.29L14.16-0.29Q14.06 0.49 13.67 1.37L13.67 1.37L13.67 1.37Q13.28 2.15 12.65 2.73L12.65 2.73L12.65 2.73Q12.01 3.32 11.43 3.61L11.43 3.61L11.43 3.61Q10.84 3.91 10.55 4.00L10.55 4.00L10.16 4.10L10.16-8.59L10.16-21.29ZM17.77-18.95L19.92-18.95L22.07-18.95L22.07-18.55L22.07-18.16L26.56-18.16L31.05-18.16L31.05-18.55L31.05-18.95L33.20-18.95L35.35-18.95L35.25-12.01L35.25-12.01Q35.25-4.98 35.06-4.39L35.06-4.39L35.06-4.39Q34.77-3.61 34.47-3.03L34.47-3.03L34.47-3.03Q34.18-2.34 33.64-1.76L33.64-1.76L33.64-1.76Q33.11-1.17 32.42-0.88L32.42-0.88L32.42-0.88Q31.84-0.49 31.45-0.49L31.45-0.49L31.05-0.39L31.05-1.46L31.05-2.64L26.07-2.64L21.09-2.64L20.70-2.15L20.70-2.15Q20.31-1.66 19.82-1.27L19.82-1.27L19.82-1.27Q19.24-0.78 18.75-0.59L18.75-0.59L18.75-0.59Q18.16-0.39 17.97-0.39L17.97-0.39L17.97-0.39Q17.77-0.39 17.77-9.67L17.77-9.67L17.77-18.95ZM31.05-16.21L26.56-16.21L22.07-16.21L22.07-13.96L22.07-11.72L26.56-11.72L31.05-11.72L31.05-13.96L31.05-16.21ZM31.05-9.77L26.56-9.77L22.07-9.77L22.07-7.32L22.07-7.32Q21.97-4.88 21.88-4.69L21.88-4.69L22.56-4.49L22.56-4.49Q23.14-4.49 26.46-4.49L26.46-4.49L31.05-4.49L31.05-7.13L31.05-9.77Z" transform="translate(50 43.84765625)"></path><path fill="#00A0E9" d="M23.63-37.79L25.29-37.79L26.95-37.79L26.95-31.25L26.95-24.71L34.57-24.71L42.19-24.71L42.19-23.73L42.19-22.85L34.57-22.75L26.95-22.75L26.95-17.97L26.95-13.18L33.79-13.18L40.63-13.18L40.63-12.21L40.63-11.33L33.79-11.33L26.95-11.33L26.95-6.74L26.95-6.74Q26.86-3.91 26.86-2.93L26.86-2.93L26.86-2.93Q26.86-1.95 26.66-1.56L26.66-1.56L26.66-1.56Q26.46-0.98 26.27-0.39L26.27-0.39L26.27-0.39Q26.07 0.10 25.78 0.39L25.78 0.39L25.78 0.39Q25.49 0.68 25.49 0.78L25.49 0.78L25.49 0.78Q25.49 0.88 35.35 0.88L35.35 0.88L45.21 0.88L45.21 1.76L45.21 2.73L24.90 2.73L4.69 2.73L4.69 1.76L4.69 0.88L14.06 0.78L23.54 0.78L23.54-5.27L23.54-11.23L17.09-11.23L10.55-11.33L10.64-12.21L10.64-13.18L17.09-13.18L23.63-13.18L23.63-17.97L23.63-22.75L18.16-22.75L12.60-22.75L11.91-21.78L11.91-21.78Q11.43-20.90 10.35-19.82L10.35-19.82L10.35-19.82Q9.38-18.85 8.30-18.07L8.30-18.07L8.30-18.07Q7.42-17.38 6.40-16.85L6.40-16.85L6.40-16.85Q5.37-16.31 5.18-16.31L5.18-16.31L5.18-16.31Q4.98-16.31 4.98-17.09L4.98-17.09L4.98-17.87L5.57-18.26L5.57-18.26Q6.15-18.55 6.84-19.24L6.84-19.24L6.84-19.24Q7.42-19.82 8.11-20.70L8.11-20.70L8.11-20.70Q8.89-21.68 9.28-22.56L9.28-22.56L9.28-22.56Q9.77-23.63 10.06-24.76L10.06-24.76L10.06-24.76Q10.35-25.88 10.45-29.00L10.45-29.00L10.45-32.13L12.60-32.13L14.75-32.13L14.65-30.27L14.65-30.27Q14.65-28.42 14.36-27.44L14.36-27.44L14.36-27.44Q14.16-26.56 13.87-25.68L13.87-25.68L13.87-25.68Q13.57-24.80 13.57-24.76L13.57-24.76L13.57-24.76Q13.57-24.71 18.55-24.71L18.55-24.71L23.54-24.71L23.63-31.25L23.63-37.79Z" transform="translate(100 43.84765625)"></path><path fill="#00A0E9" d="M19.53-38.28L19.53-38.28L19.53-38.28Q19.63-38.28 19.92-37.89L19.92-37.89L19.92-37.89Q20.21-37.40 20.70-37.01L20.70-37.01L20.70-37.01Q21.29-36.52 21.88-36.23L21.88-36.23L21.88-36.23Q22.46-35.94 23.05-35.84L23.05-35.84L23.05-35.84Q23.63-35.64 31.54-35.64L31.54-35.64L39.45-35.64L39.45-34.28L39.45-32.91L35.84-32.91L32.23-32.81L32.23-28.81L32.23-24.71L37.89-24.71L43.65-24.71L43.65-23.73L43.55-22.85L37.89-22.75L32.23-22.75L32.23-20.12L32.23-20.12Q32.23-17.38 32.08-16.85L32.08-16.85L32.08-16.85Q31.93-16.31 31.54-15.43L31.54-15.43L31.54-15.43Q31.35-15.04 31.15-14.55L31.15-14.55L31.15-14.55Q31.05-14.55 31.05-14.55L31.05-14.55L31.05-14.55Q31.05-14.45 31.84-14.45L31.84-14.45L31.84-14.45Q32.62-14.45 33.69-14.45L33.69-14.45L36.43-14.45L36.43-14.75L36.43-15.14L38.57-15.14L40.63-15.14L40.63-7.91L40.63-7.91Q40.63-0.68 40.53 0L40.53 0L40.53 0Q40.33 0.78 40.04 1.17L40.04 1.17L40.04 1.17Q39.84 1.56 39.36 2.15L39.36 2.15L39.36 2.15Q38.87 2.64 38.38 2.93L38.38 2.93L38.38 2.93Q37.79 3.22 37.11 3.22L37.11 3.22L36.43 3.22L36.43 1.86L36.43 0.59L29.79 0.59L23.24 0.59L23.05 1.07L23.05 1.07Q22.75 1.56 22.36 2.05L22.36 2.05L22.36 2.05Q21.88 2.54 21.29 2.83L21.29 2.83L21.29 2.83Q20.70 3.03 20.02 3.03L20.02 3.03L19.34 3.03L19.34-6.15L19.34-15.33L21.48-15.33L23.63-15.33L23.63-14.84L23.63-14.45L25.78-14.45L27.93-14.45L27.93-18.55L27.93-22.75L22.17-22.75L16.41-22.75L16.41-23.73L16.41-24.71L22.17-24.71L27.93-24.71L27.93-28.81L27.93-32.91L26.17-32.91L26.17-32.91Q24.32-33.01 23.34-33.30L23.34-33.30L23.34-33.30Q22.36-33.59 21.58-33.98L21.58-33.98L21.58-33.98Q20.80-34.38 20.12-35.06L20.12-35.06L20.12-35.06Q19.43-35.74 19.14-36.23L19.14-36.23L18.95-36.72L19.24-37.50L19.24-37.50Q19.53-38.28 19.53-38.28ZM36.43-12.60L29.98-12.60L23.63-12.60L23.63-6.93L23.63-1.27L29.98-1.27L36.43-1.27L36.43-6.93L36.43-12.60ZM6.35-34.86L10.25-34.86L14.26-34.86L14.26-33.98L14.26-33.11L10.25-33.11L6.35-33.11L6.35-33.98L6.35-34.86ZM6.35-22.85L10.25-22.85L14.26-22.85L14.26-21.97L14.26-21.09L10.25-21.09L6.35-21.09L6.35-21.97L6.35-22.85ZM8.20-11.04L10.35-11.04L12.50-11.04L12.50-6.45L12.50-6.45Q12.50-1.76 12.30-1.07L12.30-1.07L12.30-1.07Q12.11-0.29 11.82 0.20L11.82 0.20L11.82 0.20Q11.52 0.68 11.13 1.17L11.13 1.17L11.13 1.17Q10.74 1.56 10.16 1.81L10.16 1.81L10.16 1.81Q9.57 2.05 8.98 2.05L8.98 2.05L8.30 2.05L8.30-4.49L8.20-11.04Z" transform="translate(150 43.84765625)"></path></g></svg></g> <!----></g>  <!----></svg>